<svg width="62" height="62" viewBox="0 0 62 62" fill="none" xmlns="http://www.w3.org/2000/svg">
    <path d="m30.32 39.558.062-.06a15.885 15.885 0 0 1-6.428-3.954v10.325l6.366-6.311z" fill="#fff"/>
    <path d="M37.142 40.14c-.146-.204-3.26-5.698-3.444-5.88 0 0-1.563 3.567-3.315 5.239-.021.02-.043.039-.063.06l-6.365 6.31-.001-40.432C23.954 3.04 21.904 1 19.479 1c-2.472 0-4.475 1.987-4.475 4.437v40.432L8.64 39.558c-1.705-1.691-4.612-1.702-6.328 0a4.41 4.41 0 0 0 0 6.274l14.003 13.885c1.724 1.71 4.606 1.71 6.33.001L36.65 45.833a4.409 4.409 0 0 0 .493-5.693z" fill="#fff"/>
    <path d="M35.225 8.543a15.813 15.813 0 0 0-11.271 4.713 15.803 15.803 0 0 0-4.589 11.143c0 4.34 1.754 8.279 4.59 11.145a15.884 15.884 0 0 0 6.427 3.955 4.502 4.502 0 0 1 6.266.059c.184.183.348.378.493.582 7.845-.95 13.944-7.646 13.944-15.74 0-8.744-7.115-15.857-15.86-15.857zM57.186 55.47H27.517a.544.544 0 0 1-.544-.545v-4.442c0-.3.244-.544.544-.544h29.669c.3 0 .544.243.544.544v4.442c0 .3-.243.544-.544.544z" fill="#fff"/>
    <path d="M45.087 49.939h-5.471v5.53h5.471v-5.53zM60.456 49.939H48.357l-2.736-1.207-2.735 1.207H30.787a.544.544 0 0 1-.544-.544v-4.443c0-.3.244-.544.544-.544h12.099l2.735 1.207 2.736-1.207h12.099c.3 0 .544.244.544.544v4.443c0 .3-.244.544-.544.544z" fill="#fff"/>
    <path d="M48.357 44.408h-5.471v5.53h5.471v-5.53zM60.456 61H48.357l-2.736-1.207L42.886 61H30.787a.544.544 0 0 1-.544-.544v-4.442c0-.301.244-.545.544-.545h12.099l2.735 1.207 2.736-1.207h12.099c.3 0 .544.244.544.545v4.441c0 .301-.244.545-.544.545z" fill="#fff"/>
    <path d="M48.357 55.47h-5.471V61h5.471v-5.53zM30.32 39.558l.062-.06a15.885 15.885 0 0 1-6.428-3.954v10.325l6.366-6.311z" fill="#fff"/>
    <path d="M37.658 44.298a4.412 4.412 0 0 0-1.01-4.74 4.502 4.502 0 0 0-6.266-.06l-.062.06-6.365 6.31V35.543" fill="#fff"/>
    <path d="M37.658 44.298a4.412 4.412 0 0 0-1.01-4.74 4.502 4.502 0 0 0-6.266-.06l-.062.06-6.365 6.31V35.543" stroke="#7F8276" stroke-width="2" stroke-miterlimit="10" stroke-linecap="round" stroke-linejoin="round"/>
    <path d="M15.004 13.633V45.87L8.64 39.558c-1.705-1.691-4.612-1.702-6.328 0a4.41 4.41 0 0 0 0 6.274l14.003 13.885c1.724 1.71 4.606 1.71 6.33.001l4.286-4.249" fill="#fff"/>
    <path d="M15.004 13.633V45.87L8.64 39.558c-1.705-1.691-4.612-1.702-6.328 0a4.41 4.41 0 0 0 0 6.274l14.003 13.885c1.724 1.71 4.606 1.71 6.33.001l4.286-4.249" stroke="#7F8276" stroke-width="2" stroke-miterlimit="10" stroke-linecap="round" stroke-linejoin="round"/>
    <path d="M23.954 13.256V5.437C23.954 3.04 21.904 1 19.478 1c-2.471 0-4.475 1.987-4.475 4.437v4.597" fill="#fff"/>
    <path d="M23.954 13.256V5.437C23.954 3.04 21.904 1 19.478 1c-2.471 0-4.475 1.987-4.475 4.437v4.597" stroke="#7F8276" stroke-width="2" stroke-miterlimit="10" stroke-linecap="round" stroke-linejoin="round"/>
    <path d="M37.141 40.14c7.845-.95 13.944-7.646 13.944-15.74 0-8.744-7.115-15.857-15.86-15.857a15.813 15.813 0 0 0-11.271 4.713 15.803 15.803 0 0 0-4.589 11.143c0 4.34 1.754 8.279 4.59 11.145a15.884 15.884 0 0 0 6.427 3.955" fill="#fff"/>
    <path d="M37.141 40.14c7.845-.95 13.944-7.646 13.944-15.74 0-8.744-7.115-15.857-15.86-15.857a15.813 15.813 0 0 0-11.271 4.713 15.803 15.803 0 0 0-4.589 11.143c0 4.34 1.754 8.279 4.59 11.145a15.884 15.884 0 0 0 6.427 3.955M38.082 17.663l-5.536 13.19" stroke="#7F8276" stroke-width="1.5" stroke-miterlimit="10" stroke-linecap="round" stroke-linejoin="round"/>
    <path d="M30.346 22.733c1.351 0 2.446-1.273 2.446-2.842 0-1.57-1.095-2.842-2.446-2.842-1.35 0-2.446 1.272-2.446 2.842s1.095 2.842 2.446 2.842zM40.104 31.75c1.35 0 2.446-1.272 2.446-2.842s-1.095-2.842-2.446-2.842c-1.351 0-2.446 1.272-2.446 2.842s1.095 2.842 2.446 2.842z" fill="#fff" stroke="#7F8276" stroke-width="1.5" stroke-miterlimit="10" stroke-linecap="round" stroke-linejoin="round"/>
    <path d="M57.186 55.47H27.517a.544.544 0 0 1-.544-.545v-4.442c0-.3.244-.544.544-.544h29.669c.3 0 .544.243.544.544v4.442c0 .3-.243.544-.544.544z" fill="#fff" stroke="#7F8276" stroke-width="2" stroke-miterlimit="10" stroke-linecap="round" stroke-linejoin="round"/>
    <path d="M45.087 49.939h-5.471v5.53h5.471v-5.53zM60.456 49.939H30.787a.544.544 0 0 1-.544-.544v-4.443c0-.3.244-.544.544-.544h29.669c.3 0 .544.244.544.544v4.443c0 .3-.244.544-.544.544z" fill="#fff" stroke="#7F8276" stroke-width="1.5" stroke-miterlimit="10" stroke-linecap="round" stroke-linejoin="round"/>
    <path d="M48.357 44.408h-5.471v5.53h5.471v-5.53z" fill="#fff" stroke="#7F8276" stroke-width="1.5" stroke-miterlimit="10" stroke-linecap="round" stroke-linejoin="round"/>
    <path d="M56.347 61h4.109c.3 0 .544-.244.544-.544v-4.442c0-.301-.244-.545-.544-.545H30.787c-.3 0-.544.244-.544.545v4.441c0 .301.244.545.544.545h21.944" fill="#fff"/>
    <path d="M56.347 61h4.109c.3 0 .544-.244.544-.544v-4.442c0-.301-.244-.545-.544-.545H30.787c-.3 0-.544.244-.544.545v4.441c0 .301.244.545.544.545h21.944" stroke="#7F8276" stroke-width="1.5" stroke-miterlimit="10" stroke-linecap="round" stroke-linejoin="round"/>
    <path d="M48.357 55.47h-5.471V61h5.471v-5.53z" fill="#fff" stroke="#7F8276" stroke-width="1.5" stroke-miterlimit="10" stroke-linecap="round" stroke-linejoin="round"/>
</svg>
